<svg width="223" height="52" viewBox="0 0 223 52" fill="none" xmlns="http://www.w3.org/2000/svg">
<path d="M19.7506 33.318C19.6264 33.318 19.5031 33.3427 19.3908 33.3947C18.3588 33.8696 17.2118 34.1345 16.0026 34.1345C11.5184 34.1345 7.86993 30.486 7.86993 26.0018C7.86993 23.7534 8.78685 21.7159 10.2654 20.2428C10.8207 19.6893 10.438 18.7432 9.65446 18.7432C9.42523 18.7432 9.20421 18.8318 9.04165 18.9934C7.20872 20.8145 6.08358 23.3479 6.12102 26.1388C6.19317 31.423 10.4627 35.7464 15.746 35.8806C17.304 35.9199 18.7844 35.5975 20.1086 34.9902C20.9653 34.5966 20.6922 33.318 19.7506 33.318Z" fill="url(#paint0_linear_0_415)"/>
<path d="M16.0023 12.8567C19.5139 12.8567 22.8153 14.2239 25.2976 16.707C27.7808 19.1902 29.1479 22.4908 29.1479 26.0023C29.1479 27.2498 28.9744 28.4827 28.6328 29.6672L28.589 29.8207H31.548C31.8503 28.5786 32.0046 27.2946 32.0046 26.0023C32.0046 21.7282 30.3407 17.7098 27.3177 14.6869C24.2948 11.6649 20.2764 10 16.0023 10C11.7283 10 7.70987 11.6649 4.68695 14.6869C4.62851 14.7453 4.57188 14.8029 4.51435 14.8622L4.1463 15.2458H8.43958C10.6515 13.6805 13.2507 12.8567 16.0023 12.8567Z" fill="url(#paint1_linear_0_415)"/>
<path d="M25.2975 35.298C23.6646 36.9309 21.6381 38.1063 19.4353 38.6981C17.2032 39.2972 14.7922 39.2944 12.4634 38.6889C11.4414 38.4232 10.4606 38.0177 9.55005 37.4843C5.35906 35.0304 2.85671 30.738 2.85671 26.0018C2.85671 23.5223 3.54531 21.114 4.84763 19.0372L5.03211 18.7432H1.73247C0.598194 20.9688 0 23.4721 0 26.0018C0 30.2759 1.66489 34.2943 4.68689 37.3172C6.61845 39.2497 9.01304 40.6607 11.6104 41.3968C13.0287 41.7995 14.51 42.0004 16.0059 42.0004C17.2781 42.0004 18.5603 41.8543 19.8234 41.563C21.3221 41.2169 22.7367 40.6488 24.0281 39.8753C26.6209 38.3227 28.7223 36.1464 30.1041 33.581L30.326 33.1701H27.0263C26.5286 33.9317 25.9487 34.6468 25.2975 35.298Z" fill="url(#paint2_linear_0_415)"/>
<path d="M24.1349 26.0218C24.1331 26.947 23.9751 27.8365 23.6874 28.6657C23.491 29.2311 23.9166 29.821 24.5148 29.821C24.8893 29.821 25.2208 29.5818 25.3431 29.2274C25.703 28.189 25.8939 27.073 25.8829 25.9113C25.8336 20.4756 21.3503 16.1211 15.9137 16.1211H3.20827C2.78817 16.6773 2.40368 17.2609 2.05664 17.87H15.9118C20.396 17.87 24.1449 21.5377 24.1349 26.0218Z" fill="#951B81"/>
<path d="M16.0022 30.6945C13.33 30.6945 11.1729 28.4497 11.3172 25.7455C11.4441 23.3664 13.3684 21.4413 15.7474 21.3152C18.4507 21.1718 20.6946 23.3299 20.6946 26.0012C20.6946 26.9346 20.4206 27.8049 19.9485 28.5374C19.5914 29.0908 19.9768 29.8196 20.6352 29.8196C21.0006 29.8196 21.3366 29.6251 21.5248 29.3118C22.1275 28.3109 22.4654 27.1327 22.4417 25.8761C22.3759 22.4194 19.5503 19.6083 16.0936 19.559C12.4999 19.5079 9.56004 22.4175 9.56004 26.0003C9.56004 29.552 12.4496 32.4416 16.0013 32.4416H30.8565C31.1104 31.8753 31.3324 31.2918 31.5205 30.6927H16.0022V30.6945Z" fill="#FF0061"/>
<path d="M53.639 28.136H59.099V32H49.439V17.3H58.994V21.122H53.639V22.718H58.469V26.498H53.639V28.136ZM68.1557 21.5H72.0407V36.2H68.1557V31.055C67.4837 31.881 66.5457 32.294 65.3417 32.294C63.9277 32.294 62.7727 31.769 61.8767 30.719C60.9807 29.669 60.5327 28.346 60.5327 26.75C60.5327 25.154 60.9807 23.831 61.8767 22.781C62.7727 21.731 63.9277 21.206 65.3417 21.206C66.5457 21.206 67.4837 21.619 68.1557 22.445V21.5ZM64.9217 28.157C65.2717 28.535 65.7267 28.724 66.2867 28.724C66.8467 28.724 67.2947 28.535 67.6307 28.157C67.9807 27.779 68.1557 27.31 68.1557 26.75C68.1557 26.19 67.9807 25.721 67.6307 25.343C67.2947 24.965 66.8467 24.776 66.2867 24.776C65.7267 24.776 65.2717 24.965 64.9217 25.343C64.5857 25.721 64.4177 26.19 64.4177 26.75C64.4177 27.31 64.5857 27.779 64.9217 28.157ZM80.8701 21.5H84.7551V32H80.8701V30.971C80.2261 31.853 79.2881 32.294 78.0561 32.294C76.9081 32.294 75.9841 31.902 75.2841 31.118C74.5981 30.32 74.2551 29.137 74.2551 27.569V21.5H78.1401V27.149C78.1401 28.087 78.5741 28.556 79.4421 28.556C79.9041 28.556 80.2541 28.409 80.4921 28.115C80.7441 27.821 80.8701 27.415 80.8701 26.897V21.5ZM94.1892 21.5H98.0742V32H94.1892V31.055C93.5172 31.881 92.5792 32.294 91.3752 32.294C89.9612 32.294 88.8062 31.769 87.9102 30.719C87.0142 29.669 86.5662 28.346 86.5662 26.75C86.5662 25.154 87.0142 23.831 87.9102 22.781C88.8062 21.731 89.9612 21.206 91.3752 21.206C92.5792 21.206 93.5172 21.619 94.1892 22.445V21.5ZM90.9552 28.157C91.3052 28.535 91.7602 28.724 92.3202 28.724C92.8802 28.724 93.3282 28.535 93.6642 28.157C94.0142 27.779 94.1892 27.31 94.1892 26.75C94.1892 26.19 94.0142 25.721 93.6642 25.343C93.3282 24.965 92.8802 24.776 92.3202 24.776C91.7602 24.776 91.3052 24.965 90.9552 25.343C90.6192 25.721 90.4512 26.19 90.4512 26.75C90.4512 27.31 90.6192 27.779 90.9552 28.157ZM100.394 32V16.67H104.279V32H100.394ZM110.34 24.587C110.34 24.755 110.466 24.888 110.718 24.986C110.984 25.084 111.313 25.161 111.705 25.217C112.097 25.259 112.517 25.35 112.965 25.49C113.413 25.63 113.833 25.805 114.225 26.015C114.617 26.225 114.939 26.561 115.191 27.023C115.457 27.471 115.59 28.017 115.59 28.661C115.59 29.333 115.436 29.921 115.128 30.425C114.834 30.929 114.442 31.307 113.952 31.559C113.462 31.811 112.958 31.993 112.44 32.105C111.936 32.231 111.411 32.294 110.865 32.294C108.331 32.294 106.693 31.461 105.951 29.795L109.332 28.283C109.598 28.997 110.095 29.354 110.823 29.354C111.299 29.354 111.537 29.2 111.537 28.892C111.537 28.71 111.362 28.563 111.012 28.451C110.662 28.339 110.242 28.227 109.752 28.115C109.262 27.989 108.765 27.828 108.261 27.632C107.771 27.422 107.351 27.079 107.001 26.603C106.651 26.127 106.476 25.532 106.476 24.818C106.476 23.67 106.91 22.781 107.778 22.151C108.66 21.521 109.675 21.206 110.823 21.206C113.119 21.206 114.638 22.095 115.38 23.873L112.167 25.028C111.915 24.44 111.523 24.146 110.991 24.146C110.557 24.146 110.34 24.293 110.34 24.587ZM125.573 17.3H129.773V32H126.413L121.793 25.28V32H117.593V17.3H120.953L125.573 24.02V17.3ZM132.496 17.3H136.696V32H132.496V17.3ZM147.402 17.3H151.602V32H148.242L143.622 25.28V32H139.422V17.3H142.782L147.402 24.02V17.3ZM158.526 28.136H163.986V32H154.326V17.3H163.881V21.122H158.526V22.718H163.356V26.498H158.526V28.136Z" fill="#C6009A"/>
<path d="M180.367 17.3V32H178.897V19.526L173.752 28.136H173.542L168.397 19.526V32H166.927V17.3H168.754L173.647 25.49L178.54 17.3H180.367ZM191.535 21.5H192.921V32H191.535V30.362C190.751 31.622 189.575 32.252 188.007 32.252C186.733 32.252 185.725 31.867 184.983 31.097C184.255 30.313 183.891 29.263 183.891 27.947V21.5H185.277V27.947C185.277 28.885 185.522 29.613 186.012 30.131C186.516 30.649 187.223 30.908 188.133 30.908C189.141 30.908 189.96 30.593 190.59 29.963C191.22 29.319 191.535 28.332 191.535 27.002V21.5ZM197.574 24.251C197.574 24.727 197.784 25.105 198.204 25.385C198.624 25.665 199.135 25.882 199.737 26.036C200.339 26.19 200.941 26.365 201.543 26.561C202.145 26.743 202.656 27.058 203.076 27.506C203.496 27.94 203.706 28.514 203.706 29.228C203.706 30.124 203.349 30.852 202.635 31.412C201.935 31.972 201.025 32.252 199.905 32.252C198.897 32.252 198.036 32.028 197.322 31.58C196.622 31.132 196.132 30.551 195.852 29.837L197.028 29.144C197.224 29.69 197.574 30.124 198.078 30.446C198.596 30.754 199.205 30.908 199.905 30.908C200.591 30.908 201.165 30.775 201.627 30.509C202.089 30.229 202.32 29.802 202.32 29.228C202.32 28.752 202.11 28.374 201.69 28.094C201.27 27.814 200.759 27.597 200.157 27.443C199.555 27.289 198.953 27.121 198.351 26.939C197.749 26.743 197.238 26.428 196.818 25.994C196.398 25.546 196.188 24.965 196.188 24.251C196.188 23.397 196.524 22.683 197.196 22.109C197.882 21.535 198.743 21.248 199.779 21.248C200.633 21.248 201.382 21.444 202.026 21.836C202.67 22.214 203.146 22.732 203.454 23.39L202.299 24.062C201.893 23.082 201.053 22.592 199.779 22.592C199.177 22.592 198.659 22.739 198.225 23.033C197.791 23.313 197.574 23.719 197.574 24.251ZM207.953 18.98C207.757 19.176 207.519 19.274 207.239 19.274C206.959 19.274 206.721 19.176 206.525 18.98C206.329 18.784 206.231 18.546 206.231 18.266C206.231 17.986 206.329 17.748 206.525 17.552C206.721 17.356 206.959 17.258 207.239 17.258C207.519 17.258 207.757 17.356 207.953 17.552C208.149 17.748 208.247 17.986 208.247 18.266C208.247 18.546 208.149 18.784 207.953 18.98ZM206.546 32V21.5H207.932V32H206.546ZM216.396 32.252C214.814 32.252 213.498 31.727 212.448 30.677C211.398 29.613 210.873 28.304 210.873 26.75C210.873 25.196 211.398 23.894 212.448 22.844C213.498 21.78 214.814 21.248 216.396 21.248C217.432 21.248 218.363 21.5 219.189 22.004C220.015 22.494 220.617 23.159 220.995 23.999L219.861 24.65C219.581 24.02 219.126 23.523 218.496 23.159C217.88 22.781 217.18 22.592 216.396 22.592C215.234 22.592 214.254 22.998 213.456 23.81C212.658 24.608 212.259 25.588 212.259 26.75C212.259 27.912 212.658 28.899 213.456 29.711C214.254 30.509 215.234 30.908 216.396 30.908C217.18 30.908 217.88 30.726 218.496 30.362C219.112 29.984 219.595 29.48 219.945 28.85L221.1 29.522C220.666 30.362 220.029 31.027 219.189 31.517C218.349 32.007 217.418 32.252 216.396 32.252Z" fill="#000000"/>
<defs>
<linearGradient id="paint0_linear_0_415" x1="5.84619" y1="22.189" x2="19.4199" y2="35.7627" gradientUnits="userSpaceOnUse">
<stop stop-color="#951B81"/>
<stop offset="0.2656" stop-color="#AD157A"/>
<stop offset="0.8238" stop-color="#EA0567"/>
<stop offset="1" stop-color="#FF0061"/>
</linearGradient>
<linearGradient id="paint1_linear_0_415" x1="10.0698" y1="9.30423" x2="31.067" y2="30.3015" gradientUnits="userSpaceOnUse">
<stop stop-color="#951B81"/>
<stop offset="0.2656" stop-color="#AD157A"/>
<stop offset="0.8238" stop-color="#EA0567"/>
<stop offset="1" stop-color="#FF0061"/>
</linearGradient>
<linearGradient id="paint2_linear_0_415" x1="-0.000264848" y1="30.3731" x2="30.3255" y2="30.3731" gradientUnits="userSpaceOnUse">
<stop stop-color="#951B81"/>
<stop offset="0.2656" stop-color="#AD157A"/>
<stop offset="0.8238" stop-color="#EA0567"/>
<stop offset="1" stop-color="#FF0061"/>
</linearGradient>
</defs>
</svg>
