<svg xmlns="http://www.w3.org/2000/svg" version="1.1" xmlns:xlink="http://www.w3.org/1999/xlink" xmlns:svgjs="http://svgjs.dev/svgjs" width="166" height="39"><svg width="166" height="39" viewBox="0 0 166 39" fill="none" xmlns="http://www.w3.org/2000/svg">
<path d="M8.36424 22.0917C9.17157 23.9957 10.979 24.9473 13.7865 24.9464C15.5308 24.9464 16.9999 24.4003 18.1937 23.308L24.0037 27.2383C21.6143 30.1399 18.1442 31.5907 13.5933 31.5907C9.49404 31.5907 6.20987 30.4287 3.74072 28.1048C1.27158 25.781 0.0365516 22.8408 0.0356445 19.2844C0.0356445 15.7604 1.24618 12.8128 3.66725 10.4416C6.08831 8.07038 9.17247 6.88477 12.9197 6.88477C16.5355 6.88477 19.5212 8.0546 21.877 10.3943C24.2327 12.7339 25.4119 15.6662 25.4147 19.191C25.421 20.1675 25.3073 21.1412 25.0759 22.0917H8.36424ZM8.27172 16.7111H17.5677C16.9219 14.5284 15.4047 13.4365 13.0163 13.4357C10.5281 13.4357 8.9466 14.5275 8.27172 16.7111Z" fill="#FFFFFF"></path>
<path d="M46.7919 7.54091H54.8294V38.1889H46.7919V28.7847C45.1501 30.6553 42.8583 31.5907 39.9165 31.5907C36.689 31.5907 33.9859 30.4129 31.807 28.0575C29.6281 25.7021 28.5409 22.7623 28.5455 19.2384C28.5455 15.7135 29.634 12.7734 31.8111 10.4179C33.9881 8.06249 36.6913 6.88477 39.9206 6.88477C42.8578 6.88477 45.1496 7.82098 46.796 9.69342L46.7919 7.54091ZM38.0279 22.9346C38.9641 23.8708 40.1887 24.3385 41.7017 24.3376C43.2148 24.3367 44.4394 23.8691 45.3755 22.9346C46.3116 21.9984 46.7797 20.7663 46.7797 19.2384C46.7797 17.7105 46.3116 16.4784 45.3755 15.5422C44.4394 14.6059 43.2148 14.1378 41.7017 14.1378C40.1887 14.1378 38.9641 14.6059 38.0279 15.5422C37.0918 16.481 36.6237 17.7131 36.6237 19.2384C36.6237 20.7637 37.0918 21.9958 38.0279 22.9346Z" fill="#FFFFFF"></path>
<path d="M73.8729 7.54102H81.9103V30.9346H73.8729V28.5954C72.4215 30.5932 70.1782 31.5917 67.1431 31.5908C64.5279 31.5908 62.3894 30.7251 60.7276 28.9938C59.0657 27.2625 58.2344 24.7747 58.2335 21.5304V7.54102H66.2709V20.5481C66.2709 21.7649 66.602 22.6853 67.2642 23.3095C67.9263 23.9336 68.8081 24.2452 69.9093 24.2444C71.1683 24.2444 72.1449 23.8779 72.8388 23.1451C73.5327 22.4122 73.8797 21.3603 73.8797 19.9893L73.8729 7.54102Z" fill="#FFFFFF"></path>
<path d="M103.194 7.54106H111.231V30.9347H103.194V28.7848C101.547 30.6564 99.2554 31.5921 96.3182 31.5921C93.0898 31.5921 90.3867 30.4144 88.2087 28.059C86.0307 25.7035 84.9422 22.7638 84.9431 19.2398C84.9431 15.715 86.0316 12.7749 88.2087 10.4194C90.3858 8.06395 93.0889 6.88623 96.3182 6.88623C99.2545 6.88623 101.546 7.82245 103.194 9.69489V7.54106ZM94.4296 22.9348C95.3658 23.871 96.5904 24.3386 98.1034 24.3378C99.6165 24.3369 100.841 23.8692 101.777 22.9348C102.713 21.9985 103.181 20.7665 103.181 19.2385C103.181 17.7106 102.713 16.4785 101.777 15.5423C100.841 14.6061 99.6165 14.138 98.1034 14.138C96.5904 14.138 95.3658 14.6061 94.4296 15.5423C93.4935 16.4768 93.0254 17.7089 93.0254 19.2385C93.0254 20.7682 93.4935 22.0003 94.4296 22.9348Z" fill="#FFFFFF"></path>
<path d="M114.246 30.9345V0.250977H122.284V30.9345H114.246Z" fill="#FFFFFF"></path>
<path d="M133.725 14.2708C133.725 14.6688 134.147 14.9989 134.991 15.261L137.94 16.1814L141.441 17.2675C142.653 17.6436 143.671 18.3918 144.494 19.5121C145.318 20.6324 145.729 22.0402 145.728 23.7356C145.728 26.418 144.69 28.3987 142.613 29.6777C140.535 30.9566 138.069 31.5961 135.215 31.5961C129.792 31.5961 126.177 29.7399 124.37 26.0275L131.39 22.6087C132.003 24.3251 133.262 25.1829 135.167 25.182C136.618 25.182 137.344 24.7656 137.344 23.9328C137.344 23.5015 136.936 23.1439 136.107 22.8809L133.2 21.9184L129.741 20.7639C128.537 20.3584 127.491 19.604 126.747 18.6035C125.94 17.5594 125.537 16.273 125.538 14.7442C125.538 12.2485 126.495 10.3142 128.409 8.94148C130.323 7.56871 132.627 6.88232 135.321 6.88232C140.098 6.88232 143.423 8.69165 145.296 12.3103L138.517 15.2583C137.807 13.9171 136.806 13.2465 135.515 13.2465C134.322 13.2483 133.725 13.5897 133.725 14.2708Z" fill="#FFFFFF"></path>
<path d="M161.776 3.65677C159.154 1.23076 155.704 0 151.524 0C147.378 0 143.945 1.23996 141.319 3.68176C140.372 4.5621 139.571 5.57817 138.944 6.69423C139.281 6.77312 139.607 6.86385 139.923 6.96641C140.486 6.01055 141.188 5.13811 142.009 4.37603C144.441 2.10912 147.642 0.957257 151.524 0.957257C155.441 0.957257 158.66 2.0986 161.092 4.34842C163.523 6.59824 164.748 9.5581 164.748 13.1583C164.748 15.7724 164.08 18.1037 162.761 20.0919L150.988 37.2647H143.658L152.065 25.3805L151.141 25.366C149.46 25.3539 147.793 25.0685 146.209 24.5218C146.191 24.85 146.154 25.177 146.1 25.5014C147.431 25.9419 148.817 26.2073 150.222 26.2904L141.776 38.2272H151.513L163.326 21.0018L163.434 20.8453C164.959 18.6507 165.732 16.0682 165.732 13.1675C165.737 9.28723 164.404 6.08805 161.776 3.65677Z" fill="#FFFFFF"></path>
</svg><style>@media (prefers-color-scheme: light) { :root { filter: contrast(1) brightness(0.1); } }
@media (prefers-color-scheme: dark) { :root { filter: contrast(1) brightness(1); } }
</style></svg>