<?xml version="1.0" encoding="utf-8"?>
<!-- Generator: Adobe Illustrator 25.0.0, SVG Export Plug-In . SVG Version: 6.00 Build 0)  -->
<svg version="1.1" id="Camada_1" xmlns="http://www.w3.org/2000/svg" xmlns:xlink="http://www.w3.org/1999/xlink" x="0px" y="0px"
	 viewBox="0 0 340 340" style="enable-background:new 0 0 340 340;" xml:space="preserve">
<style type="text/css">
	.st0{fill:url(#SVGID_1_);}
	.st1{fill:url(#SVGID_2_);}
	.st2{fill:url(#SVGID_3_);}
	.st3{fill:url(#SVGID_4_);}
	.st4{fill:url(#SVGID_5_);}
	.st5{fill:url(#SVGID_6_);}
	.st6{fill:url(#SVGID_7_);}
	.st7{fill:url(#SVGID_8_);}
	.st8{fill:url(#SVGID_9_);}
	.st9{fill:url(#SVGID_10_);}
	.st10{fill:url(#SVGID_11_);}
	.st11{fill:url(#SVGID_12_);}
	.st12{fill:url(#SVGID_13_);}
	.st13{fill:url(#SVGID_14_);}
	.st14{fill:url(#SVGID_15_);}
	.st15{fill:url(#SVGID_16_);}
	.st16{fill:url(#SVGID_17_);}
	.st17{fill:url(#SVGID_18_);}
	.st18{fill:url(#SVGID_19_);}
	.st19{fill:url(#SVGID_20_);}
	.st20{fill:url(#SVGID_21_);}
	.st21{fill:url(#SVGID_22_);}
	.st22{fill:url(#SVGID_23_);}
	.st23{fill:url(#SVGID_24_);}
	.st24{fill:url(#SVGID_25_);}
	.st25{fill:url(#SVGID_26_);}
	.st26{fill:url(#SVGID_27_);}
	.st27{fill:url(#SVGID_28_);}
	.st28{fill:url(#SVGID_29_);}
	.st29{fill:url(#SVGID_30_);}
	.st30{fill:url(#SVGID_31_);}
	.st31{fill:url(#SVGID_32_);}
	.st32{fill:url(#SVGID_33_);}
	.st33{fill:url(#SVGID_34_);}
	.st34{fill:url(#SVGID_35_);}
	.st35{fill:url(#SVGID_36_);}
	.st36{fill:url(#SVGID_37_);}
	.st37{fill:url(#SVGID_38_);}
	.st38{fill:url(#SVGID_39_);}
	.st39{fill:url(#SVGID_40_);}
	.st40{fill:url(#SVGID_41_);}
	.st41{fill:url(#SVGID_42_);}
	.st42{fill:url(#SVGID_43_);}
	.st43{fill:url(#SVGID_44_);}
	.st44{fill:url(#SVGID_45_);}
	.st45{fill:url(#SVGID_46_);}
	.st46{fill:url(#SVGID_47_);}
	.st47{fill:url(#SVGID_48_);}
	.st48{fill:url(#SVGID_49_);}
	.st49{fill:url(#SVGID_50_);}
	.st50{fill:url(#SVGID_51_);}
	.st51{fill:url(#SVGID_52_);}
	.st52{fill:url(#SVGID_53_);}
	.st53{fill:url(#SVGID_54_);}
	.st54{fill:url(#SVGID_55_);}
	.st55{fill:url(#SVGID_56_);}
	.st56{fill:url(#SVGID_57_);}
	.st57{fill:url(#SVGID_58_);}
	.st58{fill:url(#SVGID_59_);}
	.st59{fill:url(#SVGID_60_);}
	.st60{fill:url(#SVGID_61_);}
	.st61{fill:url(#SVGID_62_);}
	.st62{fill:url(#SVGID_63_);}
	.st63{fill:url(#SVGID_64_);}
	.st64{fill:url(#SVGID_65_);}
	.st65{fill:url(#SVGID_66_);}
	.st66{fill:url(#SVGID_67_);}
	.st67{fill:url(#SVGID_68_);}
	.st68{fill:url(#SVGID_69_);}
	.st69{fill:url(#SVGID_70_);}
	.st70{fill:url(#SVGID_71_);}
	.st71{fill:url(#SVGID_72_);}
	.st72{fill:url(#SVGID_73_);}
	.st73{fill:url(#SVGID_74_);}
	.st74{fill:url(#SVGID_75_);}
	.st75{fill:url(#SVGID_76_);}
	.st76{fill:url(#SVGID_77_);}
	.st77{fill:url(#SVGID_78_);}
	.st78{fill:url(#SVGID_79_);}
	.st79{fill:url(#SVGID_80_);}
	.st80{fill:url(#SVGID_81_);}
	.st81{fill:url(#SVGID_82_);}
	.st82{fill:url(#SVGID_83_);}
	.st83{fill:url(#SVGID_84_);}
	.st84{fill:url(#SVGID_85_);}
	.st85{fill:url(#SVGID_86_);}
	.st86{fill:url(#SVGID_87_);}
	.st87{fill:url(#SVGID_88_);}
	.st88{fill:url(#SVGID_89_);}
	.st89{fill:url(#SVGID_90_);}
	.st90{fill:url(#SVGID_91_);}
	.st91{fill:url(#SVGID_92_);}
	.st92{fill:url(#SVGID_93_);}
	.st93{fill:url(#SVGID_94_);}
	.st94{fill:url(#SVGID_95_);}
	.st95{fill:url(#SVGID_96_);}
	.st96{fill:url(#SVGID_97_);}
	.st97{fill:url(#SVGID_98_);}
	.st98{fill:url(#SVGID_99_);}
	.st99{fill:url(#SVGID_100_);}
	.st100{fill:url(#SVGID_101_);}
	.st101{fill:url(#SVGID_102_);}
	.st102{fill:url(#SVGID_103_);}
</style>
<g>
	<linearGradient id="SVGID_1_" gradientUnits="userSpaceOnUse" x1="259.1542" y1="53.1723" x2="270.353" y2="53.1723">
		<stop  offset="0" style="stop-color:#253678"/>
		<stop  offset="1" style="stop-color:#4D2470"/>
	</linearGradient>
	<circle class="st0" cx="264.8" cy="53.2" r="5.6"/>
	<linearGradient id="SVGID_2_" gradientUnits="userSpaceOnUse" x1="292.3199" y1="66.3004" x2="303.5187" y2="66.3004">
		<stop  offset="0" style="stop-color:#253678"/>
		<stop  offset="1" style="stop-color:#4D2470"/>
	</linearGradient>
	<circle class="st1" cx="297.9" cy="66.3" r="5.6"/>
	<linearGradient id="SVGID_3_" gradientUnits="userSpaceOnUse" x1="313.0457" y1="221.5112" x2="324.2444" y2="221.5112">
		<stop  offset="0" style="stop-color:#253678"/>
		<stop  offset="1" style="stop-color:#4D2470"/>
	</linearGradient>
	<circle class="st2" cx="318.6" cy="221.5" r="5.6"/>
	<linearGradient id="SVGID_4_" gradientUnits="userSpaceOnUse" x1="294.7354" y1="239.476" x2="305.9342" y2="239.476">
		<stop  offset="0" style="stop-color:#253678"/>
		<stop  offset="1" style="stop-color:#4D2470"/>
	</linearGradient>
	<circle class="st3" cx="300.3" cy="239.5" r="5.6"/>
	<g>
		<linearGradient id="SVGID_5_" gradientUnits="userSpaceOnUse" x1="193.8737" y1="132.3889" x2="205.0725" y2="132.3889">
			<stop  offset="0" style="stop-color:#253678"/>
			<stop  offset="1" style="stop-color:#4D2470"/>
		</linearGradient>
		<circle class="st4" cx="199.5" cy="132.4" r="5.6"/>
		<linearGradient id="SVGID_6_" gradientUnits="userSpaceOnUse" x1="273.6651" y1="132.3889" x2="284.8639" y2="132.3889">
			<stop  offset="0" style="stop-color:#253678"/>
			<stop  offset="1" style="stop-color:#4D2470"/>
		</linearGradient>
		<circle class="st5" cx="279.3" cy="132.4" r="5.6"/>
	</g>
	<g>
		<linearGradient id="SVGID_7_" gradientUnits="userSpaceOnUse" x1="199.2178" y1="152.3367" x2="210.4185" y2="152.3367">
			<stop  offset="0" style="stop-color:#253678"/>
			<stop  offset="1" style="stop-color:#4D2470"/>
		</linearGradient>
		<circle class="st6" cx="204.8" cy="152.3" r="5.6"/>
		<linearGradient id="SVGID_8_" gradientUnits="userSpaceOnUse" x1="268.3192" y1="112.441" x2="279.5198" y2="112.441">
			<stop  offset="0" style="stop-color:#253678"/>
			<stop  offset="1" style="stop-color:#4D2470"/>
		</linearGradient>
		<circle class="st7" cx="273.9" cy="112.4" r="5.6"/>
	</g>
	<g>
		<linearGradient id="SVGID_9_" gradientUnits="userSpaceOnUse" x1="213.8206" y1="166.9395" x2="225.0213" y2="166.9395">
			<stop  offset="0" style="stop-color:#253678"/>
			<stop  offset="1" style="stop-color:#4D2470"/>
		</linearGradient>
		<circle class="st8" cx="219.4" cy="166.9" r="5.6"/>
		<linearGradient id="SVGID_10_" gradientUnits="userSpaceOnUse" x1="253.7163" y1="97.8382" x2="264.917" y2="97.8382">
			<stop  offset="0" style="stop-color:#253678"/>
			<stop  offset="1" style="stop-color:#4D2470"/>
		</linearGradient>
		<circle class="st9" cx="259.3" cy="97.8" r="5.6"/>
	</g>
	<g>
		<linearGradient id="SVGID_11_" gradientUnits="userSpaceOnUse" x1="233.7694" y1="172.2846" x2="244.9682" y2="172.2846">
			<stop  offset="0" style="stop-color:#253678"/>
			<stop  offset="1" style="stop-color:#4D2470"/>
		</linearGradient>
		<circle class="st10" cx="239.4" cy="172.3" r="5.6"/>
		<linearGradient id="SVGID_12_" gradientUnits="userSpaceOnUse" x1="233.7694" y1="92.4932" x2="244.9682" y2="92.4932">
			<stop  offset="0" style="stop-color:#253678"/>
			<stop  offset="1" style="stop-color:#4D2470"/>
		</linearGradient>
		<circle class="st11" cx="239.4" cy="92.5" r="5.6"/>
	</g>
	<g>
		<linearGradient id="SVGID_13_" gradientUnits="userSpaceOnUse" x1="253.7163" y1="166.9395" x2="264.917" y2="166.9395">
			<stop  offset="0" style="stop-color:#253678"/>
			<stop  offset="1" style="stop-color:#4D2470"/>
		</linearGradient>
		<circle class="st12" cx="259.3" cy="166.9" r="5.6"/>
		<linearGradient id="SVGID_14_" gradientUnits="userSpaceOnUse" x1="213.8206" y1="97.8382" x2="225.0213" y2="97.8382">
			<stop  offset="0" style="stop-color:#253678"/>
			<stop  offset="1" style="stop-color:#4D2470"/>
		</linearGradient>
		<circle class="st13" cx="219.4" cy="97.8" r="5.6"/>
	</g>
	<g>
		<linearGradient id="SVGID_15_" gradientUnits="userSpaceOnUse" x1="268.3192" y1="152.3367" x2="279.5198" y2="152.3367">
			<stop  offset="0" style="stop-color:#253678"/>
			<stop  offset="1" style="stop-color:#4D2470"/>
		</linearGradient>
		<circle class="st14" cx="273.9" cy="152.3" r="5.6"/>
		<linearGradient id="SVGID_16_" gradientUnits="userSpaceOnUse" x1="199.2178" y1="112.441" x2="210.4185" y2="112.441">
			<stop  offset="0" style="stop-color:#253678"/>
			<stop  offset="1" style="stop-color:#4D2470"/>
		</linearGradient>
		<circle class="st15" cx="204.8" cy="112.4" r="5.6"/>
	</g>
	<linearGradient id="SVGID_17_" gradientUnits="userSpaceOnUse" x1="310.5209" y1="96.0085" x2="328.6405" y2="96.0085">
		<stop  offset="0" style="stop-color:#253678"/>
		<stop  offset="1" style="stop-color:#4D2470"/>
	</linearGradient>
	<circle class="st16" cx="319.6" cy="96" r="9.1"/>
	<linearGradient id="SVGID_18_" gradientUnits="userSpaceOnUse" x1="313.7074" y1="132.2798" x2="331.827" y2="132.2798">
		<stop  offset="0" style="stop-color:#253678"/>
		<stop  offset="1" style="stop-color:#4D2470"/>
	</linearGradient>
	<circle class="st17" cx="322.8" cy="132.3" r="9.1"/>
	<linearGradient id="SVGID_19_" gradientUnits="userSpaceOnUse" x1="269.7476" y1="255.244" x2="287.8672" y2="255.244">
		<stop  offset="0" style="stop-color:#253678"/>
		<stop  offset="1" style="stop-color:#4D2470"/>
	</linearGradient>
	<circle class="st18" cx="278.8" cy="255.2" r="9.1"/>
	<linearGradient id="SVGID_20_" gradientUnits="userSpaceOnUse" x1="243.4913" y1="267.3357" x2="261.611" y2="267.3357">
		<stop  offset="0" style="stop-color:#253678"/>
		<stop  offset="1" style="stop-color:#4D2470"/>
	</linearGradient>
	<circle class="st19" cx="252.6" cy="267.3" r="9.1"/>
	<linearGradient id="SVGID_21_" gradientUnits="userSpaceOnUse" x1="213.7804" y1="275.2816" x2="231.9" y2="275.2816">
		<stop  offset="0" style="stop-color:#253678"/>
		<stop  offset="1" style="stop-color:#4D2470"/>
	</linearGradient>
	<circle class="st20" cx="222.8" cy="275.3" r="9.1"/>
	<linearGradient id="SVGID_22_" gradientUnits="userSpaceOnUse" x1="146.067" y1="275.2816" x2="164.1866" y2="275.2816">
		<stop  offset="0" style="stop-color:#253678"/>
		<stop  offset="1" style="stop-color:#4D2470"/>
	</linearGradient>
	<circle class="st21" cx="155.1" cy="275.3" r="9.1"/>
	<linearGradient id="SVGID_23_" gradientUnits="userSpaceOnUse" x1="304.6703" y1="164.6611" x2="322.7899" y2="164.6611">
		<stop  offset="0" style="stop-color:#253678"/>
		<stop  offset="1" style="stop-color:#4D2470"/>
	</linearGradient>
	<circle class="st22" cx="313.7" cy="164.7" r="9.1"/>
	<linearGradient id="SVGID_24_" gradientUnits="userSpaceOnUse" x1="285.6691" y1="195.4085" x2="303.7887" y2="195.4085">
		<stop  offset="0" style="stop-color:#253678"/>
		<stop  offset="1" style="stop-color:#4D2470"/>
	</linearGradient>
	<circle class="st23" cx="294.7" cy="195.4" r="9.1"/>
	<linearGradient id="SVGID_25_" gradientUnits="userSpaceOnUse" x1="256.957" y1="215.8705" x2="275.0766" y2="215.8705">
		<stop  offset="0" style="stop-color:#253678"/>
		<stop  offset="1" style="stop-color:#4D2470"/>
	</linearGradient>
	<circle class="st24" cx="266" cy="215.9" r="9.1"/>
	<linearGradient id="SVGID_26_" gradientUnits="userSpaceOnUse" x1="219.5775" y1="227.4624" x2="237.6971" y2="227.4624">
		<stop  offset="0" style="stop-color:#253678"/>
		<stop  offset="1" style="stop-color:#4D2470"/>
	</linearGradient>
	<circle class="st25" cx="228.6" cy="227.5" r="9.1"/>
	<linearGradient id="SVGID_27_" gradientUnits="userSpaceOnUse" x1="177.1406" y1="222.6724" x2="195.2602" y2="222.6724">
		<stop  offset="0" style="stop-color:#253678"/>
		<stop  offset="1" style="stop-color:#4D2470"/>
	</linearGradient>
	<circle class="st26" cx="186.2" cy="222.7" r="9.1"/>
	<linearGradient id="SVGID_28_" gradientUnits="userSpaceOnUse" x1="137.0653" y1="198.8345" x2="155.1849" y2="198.8345">
		<stop  offset="0" style="stop-color:#253678"/>
		<stop  offset="1" style="stop-color:#4D2470"/>
	</linearGradient>
	<circle class="st27" cx="146.1" cy="198.8" r="9.1"/>
	<linearGradient id="SVGID_29_" gradientUnits="userSpaceOnUse" x1="107.0781" y1="104.9308" x2="125.1977" y2="104.9308">
		<stop  offset="0" style="stop-color:#253678"/>
		<stop  offset="1" style="stop-color:#4D2470"/>
	</linearGradient>
	<circle class="st28" cx="116.1" cy="104.9" r="9.1"/>
	<linearGradient id="SVGID_30_" gradientUnits="userSpaceOnUse" x1="110.3902" y1="157.0473" x2="128.5098" y2="157.0473">
		<stop  offset="0" style="stop-color:#253678"/>
		<stop  offset="1" style="stop-color:#4D2470"/>
	</linearGradient>
	<circle class="st29" cx="119.4" cy="157" r="9.1"/>
	<linearGradient id="SVGID_31_" gradientUnits="userSpaceOnUse" x1="176.6846" y1="278.5479" x2="206.0021" y2="278.5479">
		<stop  offset="0" style="stop-color:#253678"/>
		<stop  offset="1" style="stop-color:#4D2470"/>
	</linearGradient>
	<circle class="st30" cx="191.3" cy="278.5" r="14.7"/>
	<linearGradient id="SVGID_32_" gradientUnits="userSpaceOnUse" x1="106.423" y1="263.8342" x2="135.7406" y2="263.8342">
		<stop  offset="0" style="stop-color:#253678"/>
		<stop  offset="1" style="stop-color:#4D2470"/>
	</linearGradient>
	<circle class="st31" cx="121.1" cy="263.8" r="14.7"/>
	<linearGradient id="SVGID_33_" gradientUnits="userSpaceOnUse" x1="71.7005" y1="241.9544" x2="101.0181" y2="241.9544">
		<stop  offset="0" style="stop-color:#253678"/>
		<stop  offset="1" style="stop-color:#4D2470"/>
	</linearGradient>
	<circle class="st32" cx="86.4" cy="242" r="14.7"/>
	<linearGradient id="SVGID_34_" gradientUnits="userSpaceOnUse" x1="42.335" y1="210.1706" x2="71.6526" y2="210.1706">
		<stop  offset="0" style="stop-color:#253678"/>
		<stop  offset="1" style="stop-color:#4D2470"/>
	</linearGradient>
	<circle class="st33" cx="57" cy="210.2" r="14.7"/>
	<linearGradient id="SVGID_35_" gradientUnits="userSpaceOnUse" x1="21.2647" y1="174.8497" x2="50.5822" y2="174.8497">
		<stop  offset="0" style="stop-color:#253678"/>
		<stop  offset="1" style="stop-color:#4D2470"/>
	</linearGradient>
	<circle class="st34" cx="35.9" cy="174.8" r="14.7"/>
	<linearGradient id="SVGID_36_" gradientUnits="userSpaceOnUse" x1="9.173" y1="132.3561" x2="38.4906" y2="132.3561">
		<stop  offset="0" style="stop-color:#253678"/>
		<stop  offset="1" style="stop-color:#4D2470"/>
	</linearGradient>
	<circle class="st35" cx="23.8" cy="132.4" r="14.7"/>
	<linearGradient id="SVGID_37_" gradientUnits="userSpaceOnUse" x1="9.173" y1="84.6804" x2="38.4906" y2="84.6804">
		<stop  offset="0" style="stop-color:#253678"/>
		<stop  offset="1" style="stop-color:#4D2470"/>
	</linearGradient>
	<circle class="st36" cx="23.8" cy="84.7" r="14.7"/>
	<linearGradient id="SVGID_38_" gradientUnits="userSpaceOnUse" x1="238.9563" y1="131.7528" x2="238.9563" y2="131.7528">
		<stop  offset="0" style="stop-color:#253678"/>
		<stop  offset="1" style="stop-color:#4D2470"/>
	</linearGradient>
	<polygon class="st37" points="239,131.8 239,131.8 239,131.8 	"/>
	<linearGradient id="SVGID_39_" gradientUnits="userSpaceOnUse" x1="238.9563" y1="131.7528" x2="238.9563" y2="131.7528">
		<stop  offset="0" style="stop-color:#253678"/>
		<stop  offset="1" style="stop-color:#4D2470"/>
	</linearGradient>
	<polygon class="st38" points="239,131.8 239,131.8 239,131.8 	"/>
	<linearGradient id="SVGID_40_" gradientUnits="userSpaceOnUse" x1="238.9563" y1="131.7528" x2="238.9563" y2="131.7528">
		<stop  offset="0" style="stop-color:#253678"/>
		<stop  offset="1" style="stop-color:#4D2470"/>
	</linearGradient>
	<polygon class="st39" points="239,131.8 239,131.8 239,131.8 	"/>
	<linearGradient id="SVGID_41_" gradientUnits="userSpaceOnUse" x1="238.9563" y1="131.7528" x2="238.9563" y2="131.7528">
		<stop  offset="0" style="stop-color:#253678"/>
		<stop  offset="1" style="stop-color:#4D2470"/>
	</linearGradient>
	<polygon class="st40" points="239,131.8 239,131.8 239,131.8 	"/>
	<linearGradient id="SVGID_42_" gradientUnits="userSpaceOnUse" x1="238.9563" y1="131.7528" x2="238.9563" y2="131.7528">
		<stop  offset="0" style="stop-color:#253678"/>
		<stop  offset="1" style="stop-color:#4D2470"/>
	</linearGradient>
	<rect x="239" y="131.8" class="st41" width="0" height="0"/>
	<linearGradient id="SVGID_43_" gradientUnits="userSpaceOnUse" x1="238.9563" y1="131.7528" x2="238.9563" y2="131.7528">
		<stop  offset="0" style="stop-color:#253678"/>
		<stop  offset="1" style="stop-color:#4D2470"/>
	</linearGradient>
	<polygon class="st42" points="239,131.8 239,131.8 239,131.8 	"/>
	<linearGradient id="SVGID_44_" gradientUnits="userSpaceOnUse" x1="238.9563" y1="131.7528" x2="238.9563" y2="131.7528">
		<stop  offset="0" style="stop-color:#253678"/>
		<stop  offset="1" style="stop-color:#4D2470"/>
	</linearGradient>
	<rect x="239" y="131.8" class="st43" width="0" height="0"/>
	<linearGradient id="SVGID_45_" gradientUnits="userSpaceOnUse" x1="238.9563" y1="131.7528" x2="238.9563" y2="131.7528">
		<stop  offset="0" style="stop-color:#253678"/>
		<stop  offset="1" style="stop-color:#4D2470"/>
	</linearGradient>
	<rect x="239" y="131.8" class="st44" width="0" height="0"/>
	<linearGradient id="SVGID_46_" gradientUnits="userSpaceOnUse" x1="238.9563" y1="131.7528" x2="238.9563" y2="131.7528">
		<stop  offset="0" style="stop-color:#253678"/>
		<stop  offset="1" style="stop-color:#4D2470"/>
	</linearGradient>
	<rect x="239" y="131.8" class="st45" width="0" height="0"/>
	<linearGradient id="SVGID_47_" gradientUnits="userSpaceOnUse" x1="238.9563" y1="131.7528" x2="238.9563" y2="131.7528">
		<stop  offset="0" style="stop-color:#253678"/>
		<stop  offset="1" style="stop-color:#4D2470"/>
	</linearGradient>
	<rect x="239" y="131.8" class="st46" width="0" height="0"/>
	<linearGradient id="SVGID_48_" gradientUnits="userSpaceOnUse" x1="238.9563" y1="131.7528" x2="238.9563" y2="131.7528">
		<stop  offset="0" style="stop-color:#253678"/>
		<stop  offset="1" style="stop-color:#4D2470"/>
	</linearGradient>
	<rect x="239" y="131.8" class="st47" width="0" height="0"/>
	<linearGradient id="SVGID_49_" gradientUnits="userSpaceOnUse" x1="238.9563" y1="131.7528" x2="238.9563" y2="131.7528">
		<stop  offset="0" style="stop-color:#253678"/>
		<stop  offset="1" style="stop-color:#4D2470"/>
	</linearGradient>
	<rect x="239" y="131.8" class="st48" width="0" height="0"/>
	<linearGradient id="SVGID_50_" gradientUnits="userSpaceOnUse" x1="238.9563" y1="131.7528" x2="238.9563" y2="131.7528">
		<stop  offset="0" style="stop-color:#253678"/>
		<stop  offset="1" style="stop-color:#4D2470"/>
	</linearGradient>
	<rect x="239" y="131.8" class="st49" width="0" height="0"/>
	<linearGradient id="SVGID_51_" gradientUnits="userSpaceOnUse" x1="238.9563" y1="131.7528" x2="238.9563" y2="131.7528">
		<stop  offset="0" style="stop-color:#253678"/>
		<stop  offset="1" style="stop-color:#4D2470"/>
	</linearGradient>
	<rect x="239" y="131.8" class="st50" width="0" height="0"/>
	<linearGradient id="SVGID_52_" gradientUnits="userSpaceOnUse" x1="238.9563" y1="131.7528" x2="238.9563" y2="131.7528">
		<stop  offset="0" style="stop-color:#253678"/>
		<stop  offset="1" style="stop-color:#4D2470"/>
	</linearGradient>
	<rect x="239" y="131.8" class="st51" width="0" height="0"/>
	<linearGradient id="SVGID_53_" gradientUnits="userSpaceOnUse" x1="238.9563" y1="131.7528" x2="238.9563" y2="131.7528">
		<stop  offset="0" style="stop-color:#253678"/>
		<stop  offset="1" style="stop-color:#4D2470"/>
	</linearGradient>
	<rect x="239" y="131.8" class="st52" width="0" height="0"/>
	<linearGradient id="SVGID_54_" gradientUnits="userSpaceOnUse" x1="238.9563" y1="131.7528" x2="238.9563" y2="131.7528">
		<stop  offset="0" style="stop-color:#253678"/>
		<stop  offset="1" style="stop-color:#4D2470"/>
	</linearGradient>
	<polygon class="st53" points="239,131.8 239,131.8 239,131.8 	"/>
	<linearGradient id="SVGID_55_" gradientUnits="userSpaceOnUse" x1="238.9563" y1="131.7528" x2="238.9563" y2="131.7528">
		<stop  offset="0" style="stop-color:#253678"/>
		<stop  offset="1" style="stop-color:#4D2470"/>
	</linearGradient>
	<polygon class="st54" points="239,131.8 239,131.8 239,131.8 	"/>
	<linearGradient id="SVGID_56_" gradientUnits="userSpaceOnUse" x1="238.9563" y1="131.7528" x2="238.9563" y2="131.7528">
		<stop  offset="0" style="stop-color:#253678"/>
		<stop  offset="1" style="stop-color:#4D2470"/>
	</linearGradient>
	<rect x="239" y="131.8" class="st55" width="0" height="0"/>
	<linearGradient id="SVGID_57_" gradientUnits="userSpaceOnUse" x1="238.9563" y1="131.7528" x2="238.9563" y2="131.7528">
		<stop  offset="0" style="stop-color:#253678"/>
		<stop  offset="1" style="stop-color:#4D2470"/>
	</linearGradient>
	<rect x="239" y="131.8" class="st56" width="0" height="0"/>
	<linearGradient id="SVGID_58_" gradientUnits="userSpaceOnUse" x1="238.9563" y1="131.7528" x2="238.9563" y2="131.7528">
		<stop  offset="0" style="stop-color:#253678"/>
		<stop  offset="1" style="stop-color:#4D2470"/>
	</linearGradient>
	<rect x="239" y="131.8" class="st57" width="0" height="0"/>
	<linearGradient id="SVGID_59_" gradientUnits="userSpaceOnUse" x1="238.9563" y1="131.7528" x2="238.9563" y2="131.7528">
		<stop  offset="0" style="stop-color:#253678"/>
		<stop  offset="1" style="stop-color:#4D2470"/>
	</linearGradient>
	<rect x="239" y="131.8" class="st58" width="0" height="0"/>
	<linearGradient id="SVGID_60_" gradientUnits="userSpaceOnUse" x1="238.9563" y1="131.7528" x2="238.9563" y2="131.7528">
		<stop  offset="0" style="stop-color:#253678"/>
		<stop  offset="1" style="stop-color:#4D2470"/>
	</linearGradient>
	<rect x="239" y="131.8" class="st59" width="0" height="0"/>
	<linearGradient id="SVGID_61_" gradientUnits="userSpaceOnUse" x1="238.9563" y1="131.7528" x2="238.9563" y2="131.7528">
		<stop  offset="0" style="stop-color:#253678"/>
		<stop  offset="1" style="stop-color:#4D2470"/>
	</linearGradient>
	<rect x="239" y="131.8" class="st60" width="0" height="0"/>
	<linearGradient id="SVGID_62_" gradientUnits="userSpaceOnUse" x1="238.9563" y1="131.7528" x2="238.9563" y2="131.7528">
		<stop  offset="0" style="stop-color:#253678"/>
		<stop  offset="1" style="stop-color:#4D2470"/>
	</linearGradient>
	<polygon class="st61" points="239,131.8 239,131.8 239,131.8 	"/>
	<linearGradient id="SVGID_63_" gradientUnits="userSpaceOnUse" x1="238.9563" y1="131.7528" x2="238.9563" y2="131.7528">
		<stop  offset="0" style="stop-color:#253678"/>
		<stop  offset="1" style="stop-color:#4D2470"/>
	</linearGradient>
	<rect x="239" y="131.8" class="st62" width="0" height="0"/>
	<linearGradient id="SVGID_64_" gradientUnits="userSpaceOnUse" x1="238.9563" y1="131.7528" x2="238.9563" y2="131.7528">
		<stop  offset="0" style="stop-color:#253678"/>
		<stop  offset="1" style="stop-color:#4D2470"/>
	</linearGradient>
	<polygon class="st63" points="239,131.8 239,131.8 239,131.8 	"/>
	<linearGradient id="SVGID_65_" gradientUnits="userSpaceOnUse" x1="238.9563" y1="131.7528" x2="238.9563" y2="131.7528">
		<stop  offset="0" style="stop-color:#253678"/>
		<stop  offset="1" style="stop-color:#4D2470"/>
	</linearGradient>
	<polygon class="st64" points="239,131.8 239,131.8 239,131.8 	"/>
	<linearGradient id="SVGID_66_" gradientUnits="userSpaceOnUse" x1="238.9563" y1="131.7528" x2="238.9563" y2="131.7528">
		<stop  offset="0" style="stop-color:#253678"/>
		<stop  offset="1" style="stop-color:#4D2470"/>
	</linearGradient>
	<polygon class="st65" points="239,131.8 239,131.8 239,131.8 	"/>
	<linearGradient id="SVGID_67_" gradientUnits="userSpaceOnUse" x1="238.9563" y1="131.7528" x2="238.9563" y2="131.7528">
		<stop  offset="0" style="stop-color:#253678"/>
		<stop  offset="1" style="stop-color:#4D2470"/>
	</linearGradient>
	<polygon class="st66" points="239,131.8 239,131.8 239,131.8 	"/>
	<linearGradient id="SVGID_68_" gradientUnits="userSpaceOnUse" x1="238.9563" y1="131.7528" x2="238.9563" y2="131.7528">
		<stop  offset="0" style="stop-color:#253678"/>
		<stop  offset="1" style="stop-color:#4D2470"/>
	</linearGradient>
	<polygon class="st67" points="239,131.8 239,131.8 239,131.8 	"/>
	<linearGradient id="SVGID_69_" gradientUnits="userSpaceOnUse" x1="238.9563" y1="131.7528" x2="238.9563" y2="131.7528">
		<stop  offset="0" style="stop-color:#253678"/>
		<stop  offset="1" style="stop-color:#4D2470"/>
	</linearGradient>
	<polygon class="st68" points="239,131.8 239,131.8 239,131.8 	"/>
	<linearGradient id="SVGID_70_" gradientUnits="userSpaceOnUse" x1="238.9563" y1="131.7528" x2="238.9563" y2="131.7528">
		<stop  offset="0" style="stop-color:#253678"/>
		<stop  offset="1" style="stop-color:#4D2470"/>
	</linearGradient>
	<rect x="239" y="131.8" class="st69" width="0" height="0"/>
	<linearGradient id="SVGID_71_" gradientUnits="userSpaceOnUse" x1="238.9563" y1="131.7528" x2="238.9563" y2="131.7528">
		<stop  offset="0" style="stop-color:#253678"/>
		<stop  offset="1" style="stop-color:#4D2470"/>
	</linearGradient>
	<polygon class="st70" points="239,131.8 239,131.8 239,131.8 	"/>
	<linearGradient id="SVGID_72_" gradientUnits="userSpaceOnUse" x1="238.9563" y1="131.7528" x2="238.9563" y2="131.7528">
		<stop  offset="0" style="stop-color:#253678"/>
		<stop  offset="1" style="stop-color:#4D2470"/>
	</linearGradient>
	<polygon class="st71" points="239,131.8 239,131.8 239,131.8 	"/>
	<linearGradient id="SVGID_73_" gradientUnits="userSpaceOnUse" x1="238.9563" y1="131.7528" x2="238.9563" y2="131.7528">
		<stop  offset="0" style="stop-color:#253678"/>
		<stop  offset="1" style="stop-color:#4D2470"/>
	</linearGradient>
	<polygon class="st72" points="239,131.8 239,131.8 239,131.8 	"/>
	<linearGradient id="SVGID_74_" gradientUnits="userSpaceOnUse" x1="238.9563" y1="131.7528" x2="238.9563" y2="131.7528">
		<stop  offset="0" style="stop-color:#253678"/>
		<stop  offset="1" style="stop-color:#4D2470"/>
	</linearGradient>
	<polygon class="st73" points="239,131.8 239,131.8 239,131.8 239,131.8 239,131.8 	"/>
	<linearGradient id="SVGID_75_" gradientUnits="userSpaceOnUse" x1="238.9563" y1="131.7528" x2="238.9563" y2="131.7528">
		<stop  offset="0" style="stop-color:#253678"/>
		<stop  offset="1" style="stop-color:#4D2470"/>
	</linearGradient>
	<polygon class="st74" points="239,131.8 239,131.8 239,131.8 239,131.8 239,131.8 239,131.8 	"/>
	<linearGradient id="SVGID_76_" gradientUnits="userSpaceOnUse" x1="238.9563" y1="131.7528" x2="238.9563" y2="131.7528">
		<stop  offset="0" style="stop-color:#253678"/>
		<stop  offset="1" style="stop-color:#4D2470"/>
	</linearGradient>
	<polygon class="st75" points="239,131.8 239,131.8 239,131.8 	"/>
	<linearGradient id="SVGID_77_" gradientUnits="userSpaceOnUse" x1="238.9563" y1="131.7528" x2="238.9563" y2="131.7528">
		<stop  offset="0" style="stop-color:#253678"/>
		<stop  offset="1" style="stop-color:#4D2470"/>
	</linearGradient>
	<polygon class="st76" points="239,131.8 239,131.8 239,131.8 	"/>
	<linearGradient id="SVGID_78_" gradientUnits="userSpaceOnUse" x1="238.9563" y1="131.7528" x2="238.9563" y2="131.7528">
		<stop  offset="0" style="stop-color:#253678"/>
		<stop  offset="1" style="stop-color:#4D2470"/>
	</linearGradient>
	<rect x="239" y="131.8" class="st77" width="0" height="0"/>
	<linearGradient id="SVGID_79_" gradientUnits="userSpaceOnUse" x1="238.9563" y1="131.7528" x2="238.9563" y2="131.7528">
		<stop  offset="0" style="stop-color:#253678"/>
		<stop  offset="1" style="stop-color:#4D2470"/>
	</linearGradient>
	<rect x="239" y="131.8" class="st78" width="0" height="0"/>
	<linearGradient id="SVGID_80_" gradientUnits="userSpaceOnUse" x1="238.9563" y1="131.7528" x2="238.9563" y2="131.7528">
		<stop  offset="0" style="stop-color:#253678"/>
		<stop  offset="1" style="stop-color:#4D2470"/>
	</linearGradient>
	<rect x="239" y="131.8" class="st79" width="0" height="0"/>
	<linearGradient id="SVGID_81_" gradientUnits="userSpaceOnUse" x1="238.9563" y1="131.7528" x2="238.9563" y2="131.7528">
		<stop  offset="0" style="stop-color:#253678"/>
		<stop  offset="1" style="stop-color:#4D2470"/>
	</linearGradient>
	<rect x="239" y="131.8" class="st80" width="0" height="0"/>
	<linearGradient id="SVGID_82_" gradientUnits="userSpaceOnUse" x1="238.9563" y1="131.7528" x2="238.9563" y2="131.7528">
		<stop  offset="0" style="stop-color:#253678"/>
		<stop  offset="1" style="stop-color:#4D2470"/>
	</linearGradient>
	<polygon class="st81" points="239,131.8 239,131.8 239,131.8 	"/>
	<linearGradient id="SVGID_83_" gradientUnits="userSpaceOnUse" x1="238.9563" y1="131.7528" x2="238.9563" y2="131.7528">
		<stop  offset="0" style="stop-color:#253678"/>
		<stop  offset="1" style="stop-color:#4D2470"/>
	</linearGradient>
	<polygon class="st82" points="239,131.8 239,131.8 239,131.8 	"/>
	<linearGradient id="SVGID_84_" gradientUnits="userSpaceOnUse" x1="238.9563" y1="131.7528" x2="238.9563" y2="131.7528">
		<stop  offset="0" style="stop-color:#253678"/>
		<stop  offset="1" style="stop-color:#4D2470"/>
	</linearGradient>
	<polygon class="st83" points="239,131.8 239,131.8 239,131.8 	"/>
	<linearGradient id="SVGID_85_" gradientUnits="userSpaceOnUse" x1="238.9563" y1="131.7528" x2="238.9563" y2="131.7528">
		<stop  offset="0" style="stop-color:#253678"/>
		<stop  offset="1" style="stop-color:#4D2470"/>
	</linearGradient>
	<polygon class="st84" points="239,131.8 239,131.8 239,131.8 	"/>
	<linearGradient id="SVGID_86_" gradientUnits="userSpaceOnUse" x1="238.9563" y1="131.7528" x2="238.9563" y2="131.7528">
		<stop  offset="0" style="stop-color:#253678"/>
		<stop  offset="1" style="stop-color:#4D2470"/>
	</linearGradient>
	<polygon class="st85" points="239,131.8 239,131.8 239,131.8 	"/>
	<linearGradient id="SVGID_87_" gradientUnits="userSpaceOnUse" x1="238.9563" y1="131.7529" x2="238.9563" y2="131.7529">
		<stop  offset="0" style="stop-color:#253678"/>
		<stop  offset="1" style="stop-color:#4D2470"/>
	</linearGradient>
	<polygon class="st86" points="239,131.8 239,131.8 239,131.8 239,131.8 239,131.8 	"/>
	<linearGradient id="SVGID_88_" gradientUnits="userSpaceOnUse" x1="238.9563" y1="131.7528" x2="238.9563" y2="131.7528">
		<stop  offset="0" style="stop-color:#253678"/>
		<stop  offset="1" style="stop-color:#4D2470"/>
	</linearGradient>
	<rect x="239" y="131.8" class="st87" width="0" height="0"/>
	<linearGradient id="SVGID_89_" gradientUnits="userSpaceOnUse" x1="238.9563" y1="131.7528" x2="238.9563" y2="131.7528">
		<stop  offset="0" style="stop-color:#253678"/>
		<stop  offset="1" style="stop-color:#4D2470"/>
	</linearGradient>
	<rect x="239" y="131.8" class="st88" width="0" height="0"/>
	<linearGradient id="SVGID_90_" gradientUnits="userSpaceOnUse" x1="238.9563" y1="131.7528" x2="238.9563" y2="131.7528">
		<stop  offset="0" style="stop-color:#253678"/>
		<stop  offset="1" style="stop-color:#4D2470"/>
	</linearGradient>
	<rect x="239" y="131.8" class="st89" width="0" height="0"/>
	<linearGradient id="SVGID_91_" gradientUnits="userSpaceOnUse" x1="238.9563" y1="131.7528" x2="238.9563" y2="131.7528">
		<stop  offset="0" style="stop-color:#253678"/>
		<stop  offset="1" style="stop-color:#4D2470"/>
	</linearGradient>
	<polygon class="st90" points="239,131.8 239,131.8 239,131.8 	"/>
	<linearGradient id="SVGID_92_" gradientUnits="userSpaceOnUse" x1="238.9563" y1="131.7528" x2="238.9563" y2="131.7528">
		<stop  offset="0" style="stop-color:#253678"/>
		<stop  offset="1" style="stop-color:#4D2470"/>
	</linearGradient>
	<polygon class="st91" points="239,131.8 239,131.8 239,131.8 	"/>
	<linearGradient id="SVGID_93_" gradientUnits="userSpaceOnUse" x1="238.9563" y1="131.7528" x2="238.9563" y2="131.7528">
		<stop  offset="0" style="stop-color:#253678"/>
		<stop  offset="1" style="stop-color:#4D2470"/>
	</linearGradient>
	<polygon class="st92" points="239,131.8 239,131.8 239,131.8 	"/>
	<linearGradient id="SVGID_94_" gradientUnits="userSpaceOnUse" x1="238.9563" y1="131.7528" x2="238.9563" y2="131.7528">
		<stop  offset="0" style="stop-color:#253678"/>
		<stop  offset="1" style="stop-color:#4D2470"/>
	</linearGradient>
	<polygon class="st93" points="239,131.8 239,131.8 239,131.8 	"/>
	<linearGradient id="SVGID_95_" gradientUnits="userSpaceOnUse" x1="238.9563" y1="131.7528" x2="238.9563" y2="131.7528">
		<stop  offset="0" style="stop-color:#253678"/>
		<stop  offset="1" style="stop-color:#4D2470"/>
	</linearGradient>
	<polygon class="st94" points="239,131.8 239,131.8 239,131.8 	"/>
	<linearGradient id="SVGID_96_" gradientUnits="userSpaceOnUse" x1="238.9563" y1="131.7528" x2="238.9563" y2="131.7528">
		<stop  offset="0" style="stop-color:#253678"/>
		<stop  offset="1" style="stop-color:#4D2470"/>
	</linearGradient>
	<rect x="239" y="131.8" class="st95" width="0" height="0"/>
	<linearGradient id="SVGID_97_" gradientUnits="userSpaceOnUse" x1="238.9563" y1="131.7528" x2="238.9563" y2="131.7528">
		<stop  offset="0" style="stop-color:#253678"/>
		<stop  offset="1" style="stop-color:#4D2470"/>
	</linearGradient>
	<rect x="239" y="131.8" class="st96" width="0" height="0"/>
	<linearGradient id="SVGID_98_" gradientUnits="userSpaceOnUse" x1="238.9563" y1="131.7528" x2="238.9563" y2="131.7528">
		<stop  offset="0" style="stop-color:#253678"/>
		<stop  offset="1" style="stop-color:#4D2470"/>
	</linearGradient>
	<polygon class="st97" points="239,131.8 239,131.8 239,131.8 239,131.8 239,131.8 	"/>
	<linearGradient id="SVGID_99_" gradientUnits="userSpaceOnUse" x1="238.9563" y1="131.7528" x2="238.9563" y2="131.7528">
		<stop  offset="0" style="stop-color:#253678"/>
		<stop  offset="1" style="stop-color:#4D2470"/>
	</linearGradient>
	<rect x="239" y="131.8" class="st98" width="0" height="0"/>
	<linearGradient id="SVGID_100_" gradientUnits="userSpaceOnUse" x1="238.9563" y1="131.7528" x2="238.9563" y2="131.7528">
		<stop  offset="0" style="stop-color:#253678"/>
		<stop  offset="1" style="stop-color:#4D2470"/>
	</linearGradient>
	<rect x="239" y="131.8" class="st99" width="0" height="0"/>
	<linearGradient id="SVGID_101_" gradientUnits="userSpaceOnUse" x1="238.9563" y1="131.7528" x2="238.9563" y2="131.7528">
		<stop  offset="0" style="stop-color:#253678"/>
		<stop  offset="1" style="stop-color:#4D2470"/>
	</linearGradient>
	<rect x="239" y="131.8" class="st100" width="0" height="0"/>
	<linearGradient id="SVGID_102_" gradientUnits="userSpaceOnUse" x1="238.9563" y1="131.7528" x2="238.9563" y2="131.7528">
		<stop  offset="0" style="stop-color:#253678"/>
		<stop  offset="1" style="stop-color:#4D2470"/>
	</linearGradient>
	<rect x="239" y="131.8" class="st101" width="0" height="0"/>
	<linearGradient id="SVGID_103_" gradientUnits="userSpaceOnUse" x1="238.9563" y1="131.7528" x2="238.9563" y2="131.7528">
		<stop  offset="0" style="stop-color:#253678"/>
		<stop  offset="1" style="stop-color:#4D2470"/>
	</linearGradient>
	<rect x="239" y="131.8" class="st102" width="0" height="0"/>
</g>
</svg>
