<svg width="32" height="30" viewBox="0 0 32 30" fill="none" xmlns="http://www.w3.org/2000/svg">
<path d="M22.9935 18.3766C22.9935 19.6891 23.3803 20.2125 24.3916 20.2125C26.6456 20.2125 28.0809 17.4391 28.0809 12.8266C28.0809 5.77656 22.7605 2.40156 16.1181 2.40156C9.28479 2.40156 3.06958 6.82656 3.06958 15.1891C3.06958 23.1766 8.50647 27.5266 16.856 27.5266C19.6909 27.5266 21.5939 27.2266 24.5049 26.2891L25.1295 28.8C22.2557 29.7016 19.1845 29.9625 16.8172 29.9625C5.8657 29.9625 0 24.15 0 15.1875C0 6.15 6.79774 0 16.157 0C25.9045 0 31.068 5.625 31.068 12.525C31.068 18.375 29.1667 22.8375 23.1861 22.8375C20.466 22.8375 18.6812 21.7875 18.4482 19.4609C17.7492 22.0484 15.8851 22.8375 13.3592 22.8375C9.98058 22.8375 7.14563 20.3234 7.14563 15.2625C7.14563 10.1625 9.63269 7.0125 14.0987 7.0125C16.4676 7.0125 17.9434 7.9125 18.6003 9.3375L19.7282 7.35H22.9903V18.3766H22.9935ZM18.2184 13.4266C18.2184 11.3656 16.6246 10.5016 15.3042 10.5016C13.8673 10.5016 12.2767 11.625 12.2767 14.9266C12.2767 17.5516 13.4806 19.0141 15.3042 19.0141C16.5858 19.0141 18.2184 18.2266 18.2184 16.0516V13.4266Z" fill="white"/>
</svg>
