<svg width="191" height="52" viewBox="0 0 191 52" fill="none" xmlns="http://www.w3.org/2000/svg">
<path d="M27.7379 28.0348H10.3288C9.71858 25.8057 7.68314 24.1631 5.26035 24.1631C2.35519 24.1631 0 26.5183 0 29.4234C0 32.3286 2.35519 34.6838 5.26035 34.6838C7.72334 34.6838 9.78618 32.9882 10.3581 30.7024H27.7379V28.0348Z" fill="url(#paint0_linear_0_433)"/>
<path d="M37.7415 17.3164C35.2785 17.3164 33.2157 19.012 32.6438 21.2978H15.2201V23.9654H32.6712C33.2814 26.1945 35.3169 27.8371 37.7397 27.8371C40.6448 27.8371 43 25.4819 43 22.5768C43.0018 19.6716 40.6467 17.3164 37.7415 17.3164Z" fill="url(#paint1_linear_0_433)"/>
<path d="M64.6947 28.136H70.1547V32H60.4947V17.3H70.0497V21.122H64.6947V22.718H69.5247V26.498H64.6947V28.136ZM79.2115 21.5H83.0965V36.2H79.2115V31.055C78.5395 31.881 77.6015 32.294 76.3975 32.294C74.9835 32.294 73.8285 31.769 72.9325 30.719C72.0365 29.669 71.5885 28.346 71.5885 26.75C71.5885 25.154 72.0365 23.831 72.9325 22.781C73.8285 21.731 74.9835 21.206 76.3975 21.206C77.6015 21.206 78.5395 21.619 79.2115 22.445V21.5ZM75.9775 28.157C76.3275 28.535 76.7825 28.724 77.3425 28.724C77.9025 28.724 78.3505 28.535 78.6865 28.157C79.0365 27.779 79.2115 27.31 79.2115 26.75C79.2115 26.19 79.0365 25.721 78.6865 25.343C78.3505 24.965 77.9025 24.776 77.3425 24.776C76.7825 24.776 76.3275 24.965 75.9775 25.343C75.6415 25.721 75.4735 26.19 75.4735 26.75C75.4735 27.31 75.6415 27.779 75.9775 28.157ZM91.9258 21.5H95.8108V32H91.9258V30.971C91.2818 31.853 90.3438 32.294 89.1118 32.294C87.9638 32.294 87.0398 31.902 86.3398 31.118C85.6538 30.32 85.3108 29.137 85.3108 27.569V21.5H89.1958V27.149C89.1958 28.087 89.6298 28.556 90.4978 28.556C90.9598 28.556 91.3098 28.409 91.5478 28.115C91.7998 27.821 91.9258 27.415 91.9258 26.897V21.5ZM105.245 21.5H109.13V32H105.245V31.055C104.573 31.881 103.635 32.294 102.431 32.294C101.017 32.294 99.8619 31.769 98.9659 30.719C98.0699 29.669 97.6219 28.346 97.6219 26.75C97.6219 25.154 98.0699 23.831 98.9659 22.781C99.8619 21.731 101.017 21.206 102.431 21.206C103.635 21.206 104.573 21.619 105.245 22.445V21.5ZM102.011 28.157C102.361 28.535 102.816 28.724 103.376 28.724C103.936 28.724 104.384 28.535 104.72 28.157C105.07 27.779 105.245 27.31 105.245 26.75C105.245 26.19 105.07 25.721 104.72 25.343C104.384 24.965 103.936 24.776 103.376 24.776C102.816 24.776 102.361 24.965 102.011 25.343C101.675 25.721 101.507 26.19 101.507 26.75C101.507 27.31 101.675 27.779 102.011 28.157ZM111.449 32V16.67H115.334V32H111.449ZM121.396 24.587C121.396 24.755 121.522 24.888 121.774 24.986C122.04 25.084 122.369 25.161 122.761 25.217C123.153 25.259 123.573 25.35 124.021 25.49C124.469 25.63 124.889 25.805 125.281 26.015C125.673 26.225 125.995 26.561 126.247 27.023C126.513 27.471 126.646 28.017 126.646 28.661C126.646 29.333 126.492 29.921 126.184 30.425C125.89 30.929 125.498 31.307 125.008 31.559C124.518 31.811 124.014 31.993 123.496 32.105C122.992 32.231 122.467 32.294 121.921 32.294C119.387 32.294 117.749 31.461 117.007 29.795L120.388 28.283C120.654 28.997 121.151 29.354 121.879 29.354C122.355 29.354 122.593 29.2 122.593 28.892C122.593 28.71 122.418 28.563 122.068 28.451C121.718 28.339 121.298 28.227 120.808 28.115C120.318 27.989 119.821 27.828 119.317 27.632C118.827 27.422 118.407 27.079 118.057 26.603C117.707 26.127 117.532 25.532 117.532 24.818C117.532 23.67 117.966 22.781 118.834 22.151C119.716 21.521 120.731 21.206 121.879 21.206C124.175 21.206 125.694 22.095 126.436 23.873L123.223 25.028C122.971 24.44 122.579 24.146 122.047 24.146C121.613 24.146 121.396 24.293 121.396 24.587ZM132.282 32L127.599 17.3H132.219L134.634 26.645L137.049 17.3H141.669L136.986 32H132.282ZM145.351 28.073C145.687 28.773 146.401 29.123 147.493 29.123C148.137 29.123 148.732 28.899 149.278 28.451L151.819 30.593C150.769 31.727 149.285 32.294 147.367 32.294C145.575 32.294 144.133 31.776 143.041 30.74C141.963 29.69 141.424 28.374 141.424 26.792C141.424 25.196 141.949 23.866 142.999 22.802C144.063 21.738 145.4 21.206 147.01 21.206C148.606 21.206 149.915 21.731 150.937 22.781C151.973 23.817 152.491 25.126 152.491 26.708C152.491 27.17 152.435 27.625 152.323 28.073H145.351ZM145.288 25.574H148.816C148.578 24.734 148.011 24.314 147.115 24.314C146.205 24.314 145.596 24.734 145.288 25.574ZM160.966 21.206C162.114 21.206 163.031 21.605 163.717 22.403C164.417 23.187 164.767 24.363 164.767 25.931V32H160.882V26.351C160.882 25.413 160.448 24.944 159.58 24.944C159.118 24.944 158.761 25.091 158.509 25.385C158.271 25.679 158.152 26.085 158.152 26.603V32H154.267V21.5H158.152V22.529C158.796 21.647 159.734 21.206 160.966 21.206ZM173.486 21.5H177.371V32H173.486V30.971C172.842 31.853 171.904 32.294 170.672 32.294C169.524 32.294 168.6 31.902 167.9 31.118C167.214 30.32 166.871 29.137 166.871 27.569V21.5H170.756V27.149C170.756 28.087 171.19 28.556 172.058 28.556C172.52 28.556 172.87 28.409 173.108 28.115C173.36 27.821 173.486 27.415 173.486 26.897V21.5ZM183.109 28.073C183.445 28.773 184.159 29.123 185.251 29.123C185.895 29.123 186.49 28.899 187.036 28.451L189.577 30.593C188.527 31.727 187.043 32.294 185.125 32.294C183.333 32.294 181.891 31.776 180.799 30.74C179.721 29.69 179.182 28.374 179.182 26.792C179.182 25.196 179.707 23.866 180.757 22.802C181.821 21.738 183.158 21.206 184.768 21.206C186.364 21.206 187.673 21.731 188.695 22.781C189.731 23.817 190.249 25.126 190.249 26.708C190.249 27.17 190.193 27.625 190.081 28.073H183.109ZM183.046 25.574H186.574C186.336 24.734 185.769 24.314 184.873 24.314C183.963 24.314 183.354 24.734 183.046 25.574Z" fill="#F4EFE8"/>
<defs>
<linearGradient id="paint0_linear_0_433" x1="-0.800106" y1="37.0126" x2="39.9119" y2="13.5076" gradientUnits="userSpaceOnUse">
<stop stop-color="#05BE68"/>
<stop offset="1" stop-color="#043D39"/>
</linearGradient>
<linearGradient id="paint1_linear_0_433" x1="1.80825" y1="39.2199" x2="42.5184" y2="15.7159" gradientUnits="userSpaceOnUse">
<stop stop-color="#05BE68"/>
<stop offset="1" stop-color="#043D39"/>
</linearGradient>
</defs>
</svg>
